HIERARCHY
ROOT pelvis
{
  OFFSET 0 100 0
  CHANNELS 6 Xposition Yposition Zposition Zrotation Xrotation Yrotation
  JOINT pelvis_right_femur
  {
    OFFSET -10.78128 -3.44521 -0.5502486
    CHANNELS 3 Zrotation Xrotation Yrotation
    JOINT right_femur_tibia
    {
      OFFSET -0.8047443 -44.0398 -0.1307829
      CHANNELS 3 Zrotation Xrotation Yrotation
      JOINT right_tibia_foot
      {
        OFFSET 3.006224 -47.83518 -5
        CHANNELS 3 Zrotation Xrotation Yrotation
        End Site
        {
          OFFSET 0 -5 15
        }
      }
    }
  }
  JOINT pelvis_left_femur
  {
    OFFSET 10.78128 -3.44521 -0.5502486
    CHANNELS 3 Zrotation Xrotation Yrotation
    JOINT left_femur_tibia
    {
      OFFSET 0.8047443 -44.0398 -0.1307829
      CHANNELS 3 Zrotation Xrotation Yrotation
      JOINT left_tibia_foot
      {
        OFFSET -4.370144 -48.10324 -4.275266
        CHANNELS 3 Zrotation Xrotation Yrotation
        End Site
        {
          OFFSET 0 -5 15
        }
      }
    }
  }
  JOINT pelvis_spine1
  {
    OFFSET 0 6.468898 -3.129235
    CHANNELS 3 Zrotation Xrotation Yrotation
    JOINT spine1
    {
      OFFSET 0 23.15396 4.99043
      CHANNELS 3 Zrotation Xrotation Yrotation
      JOINT spine2
      {
        OFFSET 0 20.79997 -5.064912
        CHANNELS 3 Zrotation Xrotation Yrotation
        JOINT neck
        {
          OFFSET 0 14.38658 9.616178
          CHANNELS 3 Zrotation Xrotation Yrotation
          End Site
          {
            OFFSET 0 20 0
          }
        }
      }
      JOINT right_manubrium
      {
        OFFSET -5.722621 16.35077 3.967754
        CHANNELS 3 Zrotation Xrotation Yrotation
        JOINT right_clavicle
        {
          OFFSET -13.16364 1.694482 -4.693211
          CHANNELS 3 Zrotation Xrotation Yrotation
          JOINT right_humerus
          {
            OFFSET -28.5034 -0.3100689 -2.792744
            CHANNELS 3 Zrotation Xrotation Yrotation
            JOINT right_radius
            {
              OFFSET -25.15693 0.02248979 -1.271978
              CHANNELS 3 Zrotation Xrotation Yrotation
              End Site
              {
                OFFSET -15 0 0
              }
            }
          }
        }
      }
      JOINT left_manubrium
      {
        OFFSET 5.722621 16.35077 3.967754
        CHANNELS 3 Zrotation Xrotation Yrotation
        JOINT left_clavicle
        {
          OFFSET 13.16364 1.694482 -4.693211
          CHANNELS 3 Zrotation Xrotation Yrotation
          JOINT left_humerus
          {
            OFFSET 29.39168 -1.063119 -2.237045
            CHANNELS 3 Zrotation Xrotation Yrotation
            JOINT left_radius
            {
              OFFSET 24.59957 -0.9528479 0.9047498
              CHANNELS 3 Zrotation Xrotation Yrotation
              End Site
              {
                OFFSET 15 -0 -0
              }
            }
          }
        }
      }
    }
  }
}
MOTION
Frames: 19
Frame Time: 0.0416666666667
-453.0644 100.6653 2741.749 -0.6525591 -3.0022 -33.58704 1.58167 -27.41759 -1.977542 -0 5.151705 -0 -2.198567 4.918191 -5.389192 -5.549949 16.53901 -6.082333 -0 19.59089 -0 -3.118521 -19.5473 12.23185 -1.130126 0.5889621 1.850822 4.708299 9.309041 -9.64645 0.1605116 18.88355 8.824793 4.560437 -25.297 7.762256 5.035206 -13.69181 12.4863 89.14936 31.62893 -23.99287 -0 0 3.713426 -13.95933 11.01309 10.77705 5.88535 -23.47461 -3.54313 -83.24003 18.90457 7.661882 0 0 -30.76443 6.437776 5.46468 5.471878
-457.2394 100.0163 2747.522 -0.7659986 -2.535492 -33.47949 2.8709 -26.62753 -0.7704088 -0 4.999754 -0 -1.53338 5.210684 -5.722988 -5.208861 17.11785 -5.801768 -0 25.61942 -0 -4.201591 -17.27894 11.98546 -1.144511 0.5867174 1.823924 4.717007 9.318128 -9.674266 0.1613479 18.8855 8.795586 4.546472 -25.22336 7.714739 5.045806 -13.65724 12.48936 89.15848 31.53998 -24.0319 -0 0 3.681694 -14.05302 11.02708 10.83427 5.880428 -23.49251 -3.577415 -83.16921 18.89399 7.542598 0 0 -30.78969 6.323296 5.446389 5.589221
-461.6687 99.95134 2753.495 -1.365898 -2.415574 -33.59421 4.43196 -24.35346 0.9138705 -0 7.066983 -0 -1.19358 4.94919 -6.116431 -4.578813 16.46927 -5.598903 -0 33.35827 -0 -5.268118 -14.04262 12.1806 -1.185002 0.539199 2.031605 4.546774 9.481095 -9.542484 0.1858702 19.0065 8.642423 4.461836 -24.95505 7.600576 4.965146 -13.87351 12.49233 89.09655 31.50258 -23.72806 -0 0 4.015082 -14.35363 10.98735 10.95873 5.742398 -23.39929 -3.685011 -83.26376 18.95831 7.926825 0 0 -30.4324 6.208835 5.405601 5.809488
-466.1893 100.5048 2759.48 -2.290426 -2.741992 -34.01525 5.828397 -20.54955 2.626585 -0 10.20237 -0 -1.328762 3.849102 -6.464858 -3.810525 14.14424 -5.496423 -0 42.11238 -0 -6.203019 -10.50049 12.83215 -1.249162 0.4511564 2.461096 4.207431 9.774376 -9.254974 0.2313146 19.22625 8.382644 4.320525 -24.51163 7.426392 4.799135 -14.33149 12.49507 88.92947 31.49625 -23.06019 -0 0 4.73404 -14.86631 10.90534 11.1604 5.491995 -23.19171 -3.83978 -83.53596 19.08373 8.810297 0 0 -29.68444 6.074711 5.34171 6.137482
-470.6014 101.5598 2765.252 -3.241714 -3.51322 -34.75884 6.583803 -15.42669 3.836062 -0 12.91194 -0 -1.977287 1.754131 -6.606449 -3.132684 9.921981 -5.529344 -0 50.5104 -0 -6.824925 -7.540444 13.86284 -1.332428 0.3316598 3.083681 3.721279 10.15545 -8.824232 0.2920929 19.50935 8.044088 4.143157 -23.92863 7.202241 4.559362 -15.01036 12.49645 88.61043 31.4887 -22.00842 -0 0 5.857411 -15.58752 10.79858 11.45379 5.163154 -22.86732 -4.002224 -83.996 19.24156 10.16932 0 0 -28.55394 5.890608 5.254054 6.577787
-474.7537 102.8731 2770.643 -3.915957 -4.568358 -35.71837 6.492933 -9.503013 4.252814 -0 14.05624 -0 -2.922487 -1.190463 -6.403007 -2.683935 4.055094 -5.691061 -0 56.68763 -0 -7.032681 -5.838098 15.08388 -1.428577 0.1933732 3.853239 3.12448 10.5705 -8.275415 0.3606992 19.8125 7.660463 3.952392 -23.25338 6.940538 4.263579 -15.87228 12.49459 88.10207 31.44008 -20.57946 -0 0 7.377027 -16.49689 10.68474 11.85009 4.796955 -22.4305 -4.130873 -84.6388 19.39416 11.94165 0 0 -27.0815 5.624766 5.141552 7.130484
-478.6023 104.1363 2775.619 -4.184797 -5.596324 -36.70381 5.809012 -3.493134 4.023836 -0 13.49491 -0 -3.7433 -4.473968 -5.807109 -2.336418 -2.742958 -5.847486 -0 58.86276 -0 -6.937345 -5.43298 16.28498 -1.531922 0.05036784 4.713033 2.462367 10.96611 -7.643641 0.4293875 20.09635 7.264237 3.767429 -22.53671 6.654405 3.93449 -16.86527 12.48755 87.39083 31.31343 -18.81601 -0 0 9.247284 -17.55675 10.57589 12.35104 4.431196 -21.89234 -4.193633 -85.44075 19.50839 14.02927 0 0 -25.3342 5.252519 5.004459 7.790064
-482.1878 105.0338 2780.26 -4.155001 -6.257823 -37.56494 5.069089 1.970034 3.545292 -0 11.95374 -0 -4.137506 -7.549398 -4.895451 -1.749917 -9.605514 -5.751379 -0 56.07251 -0 -6.763688 -5.807243 17.35813 -1.640397 -0.08516708 5.611365 1.777859 11.29997 -6.962985 0.4919193 20.33634 6.879815 3.600315 -21.8221 6.355324 3.595948 -17.9371 12.47409 86.48141 31.08698 -16.77611 -0 0 11.40322 -18.72501 10.47582 12.95055 4.090952 -21.26297 -4.172242 -86.37141 19.56837 16.32981 0 0 -23.3765 4.760433 4.846474 8.547432
-485.5718 105.3157 2784.695 -4.019627 -6.34046 -38.2671 4.68371 6.588105 3.096514 -0 10.31893 -0 -4.162596 -10.28987 -3.860765 -0.6915869 -15.81227 -5.234133 -0 48.71003 -0 -6.614176 -6.374022 18.30336 -1.756009 -0.2050962 6.5126 1.10267 11.54391 -6.258084 0.5443377 20.524 6.522448 3.456904 -21.13989 6.052279 3.269033 -19.04658 12.45378 85.38378 30.75752 -14.50925 -0 0 13.78316 -19.9686 10.38162 13.63975 3.788692 -20.54773 -4.058552 -87.40484 19.57481 18.76101 0 0 -21.25396 4.147842 4.674394 9.388532
-488.8146 104.9008 2789.073 -3.857863 -5.821181 -38.86022 4.666914 10.36396 2.714109 -0 9.211797 -0 -4.063834 -12.89744 -2.897942 0.697711 -20.88668 -4.384718 -0 38.58625 -0 -6.416271 -6.783494 19.11196 -1.880861 -0.3046373 7.390153 0.4610549 11.68193 -5.549976 0.5850602 20.65922 6.203439 3.340888 -20.51119 5.754541 2.971882 -20.15553 12.42724 84.12089 30.33286 -12.07401 -0 0 16.3145 -21.25839 10.28833 14.40288 3.53275 -19.75851 -3.852189 -88.51027 19.53518 21.23886 0 0 -19.01987 3.430829 4.496297 10.28661
-491.9962 103.9326 2793.562 -3.606759 -4.861235 -39.41545 4.700282 13.39132 2.349229 -0 9.009655 -0 -3.949826 -15.33524 -2.078967 1.960499 -24.58033 -3.526231 -0 28.3414 -0 -6.076762 -6.901403 19.70744 -2.011699 -0.3800431 8.208749 -0.1195472 11.71237 -4.870469 0.6156746 20.74485 5.934825 3.256061 -19.95452 5.476055 2.722909 -21.20726 12.3974 82.75807 29.82599 -9.591754 -0 0 18.86624 -22.54923 10.19464 15.20225 3.333112 -18.93304 -3.567261 -89.62915 19.46201 23.62797 0 0 -16.77957 2.647495 4.321334 11.1966
-495.2222 102.7091 2798.344 -3.199573 -3.79105 -39.98758 4.400818 15.77422 2.032914 -0 9.944934 -0 -3.715739 -17.04107 -1.36832 2.602805 -26.83541 -3.052575 -0 20.38093 -0 -5.608311 -6.754296 20.03192 -2.137565 -0.4272352 8.916818 -0.6056151 11.65508 -4.26735 0.6423009 20.78837 5.727777 3.204609 -19.48572 5.236588 2.542378 -22.11749 12.37082 81.41891 29.25973 -7.275183 -0 0 21.22526 -23.76964 10.10883 15.96849 3.198069 -18.14146 -3.241108 -90.66794 19.38172 25.72725 0 0 -14.69824 1.856033 4.160987 12.06232
-498.5938 101.5416 2803.563 -2.677319 -3.026251 -40.58868 3.557413 17.64458 1.898637 -0 12.18728 -0 -3.20082 -17.19754 -0.7473297 2.346241 -27.73365 -3.242821 -0 15.96157 -0 -5.107434 -6.523722 20.12801 -2.242512 -0.4426967 9.457587 -0.9664058 11.55221 -3.793412 0.6749634 20.80464 5.587197 3.183873 -19.11226 5.057622 2.448633 -22.79237 12.35647 80.26054 28.67541 -5.387051 -0 0 23.13772 -24.8348 10.05235 16.6121 3.127572 -17.4699 -2.93133 -91.51992 19.33721 27.31862 0 0 -12.9586 1.122186 4.029351 12.83284
-502.1656 100.6593 2809.272 -2.166008 -2.892696 -41.15853 2.217573 19.06299 2.105797 -0 15.97978 -0 -2.35928 -15.20887 -0.332779 1.219189 -27.41098 -4.10925 -0 14.98384 -0 -4.638517 -6.480496 20.08927 -2.311851 -0.4261873 9.787554 -1.184789 11.45457 -3.489898 0.7233615 20.81232 5.509217 3.185386 -18.82991 4.955591 2.450883 -23.1608 12.36079 79.42327 28.13256 -4.154376 -0 0 24.39145 -25.67268 10.05751 17.05258 3.112678 -16.99317 -2.698331 -92.09659 19.37274 28.23866 0 0 -11.70728 0.5031127 3.941537 13.47347
-505.9162 100.211 2815.394 -1.782061 -3.46121 -41.55764 0.6591481 19.81464 2.711487 -0 21.69512 -0 -1.312711 -11.07343 -0.3761649 -0.4994944 -25.95353 -5.353556 -0 16.4247 -0 -4.152953 -6.859178 19.95075 -2.337999 -0.3831224 9.887595 -1.260627 11.40127 -3.377253 0.7915481 20.82579 5.484116 3.197403 -18.62566 4.93676 2.543938 -23.19672 12.38243 78.99226 27.6939 -3.700416 -0 0 24.88074 -26.24398 10.15805 17.24545 3.142001 -16.75553 -2.58498 -92.3451 19.51204 28.4188 0 0 -11.02742 0.03632637 3.910586 13.96548
-509.7469 100.2986 2821.728 -1.580704 -4.500452 -41.61258 -0.6802207 19.33979 3.532244 -0 29.55265 -0 -0.2916657 -5.581279 -1.095184 -2.398904 -23.35442 -6.504596 -0 18.90807 -0 -3.548709 -7.750239 19.66726 -2.322165 -0.324176 9.76275 -1.206711 11.40772 -3.455665 0.8758809 20.84922 5.501146 3.208944 -18.48341 4.996246 2.708659 -22.91998 12.41151 78.99146 27.40274 -4.031199 -0 0 24.6189 -26.54585 10.3766 17.19038 3.208493 -16.76743 -2.606438 -92.24857 19.74664 27.87997 0 0 -10.93992 -0.263746 3.942974 14.30153
-513.5135 100.9682 2828.001 -1.591164 -5.590989 -41.20657 -1.361554 16.9867 4.161485 -0 39.0039 -0 0.4541321 -0.2049242 -2.44254 -4.063698 -19.59603 -7.211381 -0 21.11931 -0 -2.829128 -9.044691 19.207 -2.271697 -0.2621576 9.435691 -1.042772 11.46746 -3.71036 0.9676454 20.8765 5.551207 3.212475 -18.38757 5.120884 2.917564 -22.38178 12.43346 79.40036 27.26545 -5.06581 -0 0 23.70855 -26.60273 10.7162 16.9204 3.31164 -17.01283 -2.753078 -91.81915 20.04036 26.70227 0 0 -11.41742 -0.4034228 4.034272 14.48362
-517.0829 102.1508 2833.963 -1.861079 -6.363876 -40.3589 -1.233029 12.47274 4.273818 -0 48.31252 -0 0.7546287 3.511953 -4.044508 -5.196324 -14.82295 -7.475443 -0 22.12485 -0 -2.154661 -10.46415 18.63089 -2.196265 -0.2087758 8.93901 -0.7912683 11.56181 -4.117416 1.0577 20.89587 5.62716 3.204291 -18.32322 5.294338 3.142169 -21.64618 12.43391 80.17417 27.24985 -6.679721 -0 0 22.29678 -26.45361 11.161 16.4831 3.456058 -17.46004 -3.00038 -91.08968 20.34416 24.99127 0 0 -12.40183 -0.4030006 4.168956 14.52134
-520.3822 103.6249 2839.481 -2.395355 -6.700971 -39.22107 -0.5757558 6.180342 3.915724 -0 54.98627 -0 0.6443049 4.792975 -5.453395 -5.69867 -9.45515 -7.56217 -0 21.60404 -0 -1.678878 -11.73286 18.04736 -2.105802 -0.1734559 8.307943 -0.4747794 11.66854 -4.649264 1.13946 20.89592 5.723995 3.183672 -18.27589 5.502225 3.358743 -20.7745 12.4013 81.25784 27.30168 -8.740348 -0 0 20.53392 -26.14161 11.68475 15.92493 3.649567 -18.07266 -3.318511 -90.10377 20.61192 22.85038 0 0 -13.82383 -0.2865178 4.326515 14.426
